<[Error]>: ffmpeg version N-91369-g4ac88ba548-tessus Copyright (c) 2000-2018 the FFmpeg developers
<[Error]>:   built with Apple LLVM version 9.1.0 (clang-902.0.39.2)
<[Error]>:   configuration: --cc=/usr/bin/clang --prefix=/opt/ffmpeg --extra-version=tessus --enable-avisynth --enable-fontconfig --enable-gpl --enable-libaom --enable-libass --enable-libbluray --enable-libfreetype --enable-libgsm --enable-libmodplug --enable-libmp3lame --enable-libmysofa --enable-libopencore-amrnb --enable-libopencore-amrwb --enable-libopus --enable-librubberband --enable-libshine --enable-libsnappy --enable-libsoxr --enable-libspeex --enable-libtheora --enable-libtwolame --enable-libvidstab --enable-libvo-amrwbenc --enable-libvorbis --enable-libvpx --enable-libwavpack --enable-libx264 --enable-libx265 --enable-libxavs --enable-libxvid --enable-libzimg --enable-libzmq --enable-libzvbi --enable-version3 --pkg-config-flags=--static --disable-ffplay
<[Error]>:   libavutil      56. 18.102 / 56. 18.102
<[Error]>:   libavcodec     58. 20.104 / 58. 20.104
<[Error]>:   libavformat    58. 17.101 / 58. 17.101
<[Error]>:   libavdevice    58.  4.101 / 58.  4.101
<[Error]>:   libavfilter     7. 25.100 /  7. 25.100
<[Error]>:   libswscale      5.  2.100 /  5.  2.100
<[Error]>:   libswresample   3.  2.100 /  3.  2.100
<[Error]>:   libpostproc    55.  2.100 / 55.  2.100
<[Error]>: [hls,applehttp @ 0x7f947e004200] Opening 'http://89.28.21.86/JurnalTV_HD/tracks-v4a1/2018/07/02/16/30/36-10000.ts' for reading
<[Error]>: [hls,applehttp @ 0x7f947e004200] Opening 'http://89.28.21.86/JurnalTV_HD/tracks-v4a1/2018/07/02/16/30/46-10000.ts' for reading
<[Error]>: [NULL @ 0x7f947d803600] non-existing PPS 0 referenced
<[Error]>: [h264 @ 0x7f947d80d000] non-existing PPS 0 referenced
<[Error]>: [h264 @ 0x7f947d80d000] decode_slice_header error
<[Error]>: [h264 @ 0x7f947d80d000] no frame!
<[Error]>: [NULL @ 0x7f947d803600] non-existing PPS 0 referenced
<[Error]>: [h264 @ 0x7f947d80d000] non-existing PPS 0 referenced
<[Error]>: [h264 @ 0x7f947d80d000] decode_slice_header error
<[Error]>: [h264 @ 0x7f947d80d000] no frame!
<[Error]>: [NULL @ 0x7f947d803600] non-existing PPS 0 referenced
<[Error]>: [h264 @ 0x7f947d80d000] non-existing PPS 0 referenced
<[Error]>: [h264 @ 0x7f947d80d000] decode_slice_header error
<[Error]>: [h264 @ 0x7f947d80d000] no frame!
<[Error]>: Input #0, hls,applehttp, from 'http://89.28.21.86/JurnalTV_HD/tracks-v4a1/mono.m3u8':
<[Error]>:   Duration: N/A, start: 13579.279644, bitrate: N/A
<[Error]>:   Program 0 
<[Error]>:     Metadata:
<[Error]>:       variant_bitrate : 0
<[Error]>:     Stream #0:0: Video: h264 (Constrained Baseline) ([27][0][0][0] / 0x001B), yuv420p, 640x360 [SAR 1:1 DAR 16:9], 25 fps, 25 tbr, 90k tbn, 50 tbc
<[Error]>:     Metadata:
<[Error]>:       variant_bitrate : 0
<[Error]>:     Stream #0:1: Audio: aac (LC) ([15][0][0][0] / 0x000F), 48000 Hz, stereo, fltp
<[Error]>:     Metadata:
<[Error]>:       variant_bitrate : 0
<[Error]>: [hls @ 0x7f947e80b800] Opening '../Chunks/JurnalTV/2018/07/02/19/31/1530549070-0000000000-000000.ts' for writing
<[Error]>: Output #0, hls, to '../Chunks/JurnalTV/index.m3u8':
<[Error]>:   Metadata:
<[Error]>:     encoder         : Lavf58.17.101
<[Error]>:     Stream #0:0: Video: h264 (Constrained Baseline) ([27][0][0][0] / 0x001B), yuv420p, 640x360 [SAR 1:1 DAR 16:9], q=2-31, 25 fps, 25 tbr, 90k tbn, 25 tbc
<[Error]>:     Metadata:
<[Error]>:       variant_bitrate : 0
<[Error]>:     Stream #0:1: Audio: aac (LC) ([15][0][0][0] / 0x000F), 48000 Hz, stereo, fltp
<[Error]>:     Metadata:
<[Error]>:       variant_bitrate : 0
<[Error]>: Stream mapping:
<[Error]>:   Stream #0:0 -> #0:0 (copy)
<[Error]>:   Stream #0:1 -> #0:1 (copy)
<[Error]>: Press [q] to stop, [?] for help
<[Error]>: frame=   10 fps=0.0 q=-1.0 size=N/A time=00:00:00.51 bitrate=N/A speed=1.02x    
<[Error]>: frame=   23 fps= 23 q=-1.0 size=N/A time=00:00:01.02 bitrate=N/A speed=1.02x    
<[Error]>: frame=   35 fps= 23 q=-1.0 size=N/A time=00:00:01.53 bitrate=N/A speed=1.01x    
<[Error]>: frame=   48 fps= 24 q=-1.0 size=N/A time=00:00:02.02 bitr